<svg xmlns="http://www.w3.org/2000/svg" xmlns:xlink="http://www.w3.org/1999/xlink" width="500" zoomAndPan="magnify" viewBox="0 0 375 374.999991" height="500" preserveAspectRatio="xMidYMid meet" version="1.0"><defs><g/><clipPath id="e74d4d7341"><path d="M 158.601562 128.84375 L 206.601562 128.84375 L 206.601562 200.09375 L 158.601562 200.09375 Z M 158.601562 128.84375 " clip-rule="nonzero"/></clipPath><clipPath id="d4e452420e"><path d="M 185.042969 165.378906 C 187.339844 164.714844 189.589844 164.066406 191.902344 163.398438 C 192.8125 163.132812 193.4375 162.300781 193.4375 161.355469 C 193.445312 158.558594 193.453125 155.773438 193.390625 152.988281 C 193.382812 152.664062 192.71875 152.066406 192.367188 152.074219 C 187.4375 152.191406 182.425781 151.875 177.597656 152.675781 C 165.542969 154.679688 157.019531 167.175781 158.9375 179.359375 C 160.617188 190.035156 168 197.898438 178.4375 199.707031 C 194.527344 202.492188 206.609375 189.621094 206.546875 176.523438 C 206.472656 161.246094 206.53125 145.972656 206.53125 130.695312 C 206.53125 130.144531 206.53125 129.59375 206.53125 128.859375 C 205.953125 128.964844 205.515625 128.925781 205.253906 129.121094 C 203.324219 130.574219 201.320312 131.957031 199.554688 133.597656 C 197.507812 135.503906 196.410156 137.972656 196.410156 140.832031 C 196.417969 149.90625 196.503906 158.976562 196.453125 168.050781 C 196.410156 175.078125 194.957031 181.902344 191.628906 187.914062 C 191.566406 188.027344 191.457031 188.167969 191.324219 188.320312 C 190.8125 188.90625 189.90625 188.9375 189.375 188.371094 C 189.292969 188.28125 189.222656 188.21875 189.179688 188.195312 C 188.566406 186.714844 187.976562 185.226562 187.324219 183.761719 C 186.9375 182.890625 186.601562 181.925781 185.976562 181.257812 C 185.421875 180.667969 184.355469 179.980469 183.765625 180.160156 C 183.0625 180.375 182.210938 181.429688 182.144531 182.183594 C 181.957031 184.300781 182.148438 186.445312 182.175781 188.582031 C 182.191406 189.839844 182.175781 191.101562 182.175781 192.359375 C 181.964844 192.449219 181.949219 192.457031 181.734375 192.542969 C 181.28125 192.097656 180.753906 191.707031 180.386719 191.199219 C 175.816406 184.898438 172.265625 178.109375 170.90625 170.34375 C 170.5 168.03125 170.546875 165.71875 172.332031 163.832031 C 173.953125 162.125 176.207031 161.945312 178.074219 163.464844 C 179.117188 164.316406 180.066406 165.289062 181.121094 166.125 C 183.128906 167.710938 186.664062 168.429688 189.25 167.742188 C 187.90625 167.003906 186.269531 167.160156 184.984375 166.6875 C 184.367188 166.460938 184.410156 165.5625 185.042969 165.378906 Z M 185.042969 165.378906 " clip-rule="nonzero"/></clipPath><clipPath id="17e1a161db"><path d="M 185.042969 165.378906 C 187.339844 164.714844 189.589844 164.066406 191.902344 163.398438 C 192.8125 163.132812 193.4375 162.300781 193.4375 161.355469 C 193.445312 158.558594 193.453125 155.773438 193.390625 152.988281 C 193.382812 152.664062 192.71875 152.066406 192.367188 152.074219 C 187.4375 152.191406 182.425781 151.875 177.597656 152.675781 C 165.542969 154.679688 157.019531 167.175781 158.9375 179.359375 C 160.617188 190.035156 168 197.898438 178.4375 199.707031 C 194.527344 202.492188 206.609375 189.621094 206.546875 176.523438 C 206.472656 161.246094 206.53125 145.972656 206.53125 130.695312 C 206.53125 130.144531 206.53125 129.59375 206.53125 128.859375 C 205.953125 128.964844 205.515625 128.925781 205.253906 129.121094 C 203.324219 130.574219 201.320312 131.957031 199.554688 133.597656 C 197.507812 135.503906 196.410156 137.972656 196.410156 140.832031 C 196.417969 149.90625 196.503906 158.976562 196.453125 168.050781 C 196.410156 175.078125 194.957031 181.902344 191.628906 187.914062 C 191.566406 188.027344 191.457031 188.167969 191.324219 188.320312 C 190.8125 188.90625 189.90625 188.9375 189.375 188.371094 C 189.292969 188.28125 189.222656 188.21875 189.179688 188.195312 C 188.566406 186.714844 187.976562 185.226562 187.324219 183.761719 C 186.9375 182.890625 186.601562 181.925781 185.976562 181.257812 C 185.421875 180.667969 184.355469 179.980469 183.765625 180.160156 C 183.0625 180.375 182.210938 181.429688 182.144531 182.183594 C 181.957031 184.300781 182.148438 186.445312 182.175781 188.582031 C 182.191406 189.839844 182.175781 191.101562 182.175781 192.359375 C 181.964844 192.449219 181.949219 192.457031 181.734375 192.542969 C 181.28125 192.097656 180.753906 191.707031 180.386719 191.199219 C 175.816406 184.898438 172.265625 178.109375 170.90625 170.34375 C 170.5 168.03125 170.546875 165.71875 172.332031 163.832031 C 173.953125 162.125 176.207031 161.945312 178.074219 163.464844 C 179.117188 164.316406 180.066406 165.289062 181.121094 166.125 C 183.128906 167.710938 186.664062 168.429688 189.25 167.742188 C 187.90625 167.003906 186.269531 167.160156 184.984375 166.6875 C 184.367188 166.460938 184.410156 165.5625 185.042969 165.378906 " clip-rule="nonzero"/></clipPath><clipPath id="4e6a47588a"><path d="M 185.011719 104.1875 L 120.636719 160.929688 L 178.617188 227.164062 L 242.992188 170.421875 Z M 185.011719 104.1875 " clip-rule="nonzero"/></clipPath><linearGradient x1="0.123857" gradientTransform="matrix(64.784796, 74.009855, -73.755972, 65.007803, 150.203279, 120.019287)" y1="0" x2="0.989878" gradientUnits="userSpaceOnUse" y2="0" id="9d69ad8669"><stop stop-opacity="1" stop-color="rgb(0%, 60.398865%, 86.299133%)" offset="0"/><stop stop-opacity="1" stop-color="rgb(0%, 60.214233%, 86.114502%)" offset="0.0078125"/><stop stop-opacity="1" stop-color="rgb(0%, 59.814453%, 85.714722%)" offset="0.0117188"/><stop stop-opacity="1" stop-color="rgb(0%, 59.599304%, 85.499573%)" offset="0.015625"/><stop stop-opacity="1" stop-color="rgb(0%, 59.408569%, 85.308838%)" offset="0.0234375"/><stop stop-opacity="1" stop-color="rgb(0%, 59.008789%, 84.939575%)" offset="0.0273438"/><stop stop-opacity="1" stop-color="rgb(0%, 58.799744%, 84.762573%)" offset="0.03125"/><stop stop-opacity="1" stop-color="rgb(0%, 58.599854%, 84.584045%)" offset="0.0351562"/><stop stop-opacity="1" stop-color="rgb(0%, 58.399963%, 84.407043%)" offset="0.0390625"/><stop stop-opacity="1" stop-color="rgb(0%, 58.198547%, 84.228516%)" offset="0.0429688"/><stop stop-opacity="1" stop-color="rgb(0%, 57.998657%, 84.049988%)" offset="0.046875"/><stop stop-opacity="1" stop-color="rgb(0%, 57.798767%, 83.837891%)" offset="0.0507813"/><stop stop-opacity="1" stop-color="rgb(0%, 57.598877%, 83.625793%)" offset="0.0546875"/><stop stop-opacity="1" stop-color="rgb(0%, 57.449341%, 83.432007%)" offset="0.0625"/><stop stop-opacity="1" stop-color="rgb(0%, 57.098389%, 83.059692%)" offset="0.0664062"/><stop stop-opacity="1" stop-color="rgb(0%, 56.898499%, 82.88269%)" offset="0.0703125"/><stop stop-opacity="1" stop-color="rgb(0%, 56.698608%, 82.725525%)" offset="0.0742188"/><stop stop-opacity="1" stop-color="rgb(0%, 56.498718%, 82.569885%)" offset="0.078125"/><stop stop-opacity="1" stop-color="rgb(0%, 56.234741%, 82.284546%)" offset="0.0820312"/><stop stop-opacity="1" stop-color="rgb(0%, 55.970764%, 81.999207%)" offset="0.0859375"/><stop stop-opacity="1" stop-color="rgb(0%, 55.778503%, 81.799316%)" offset="0.0898438"/><stop stop-opacity="1" stop-color="rgb(0%, 55.586243%, 81.599426%)" offset="0.09375"/><stop stop-opacity="1" stop-color="rgb(0%, 55.37262%, 81.399536%)" offset="0.0976562"/><stop stop-opacity="1" stop-color="rgb(0%, 55.158997%, 81.199646%)" offset="0.101562"/><stop stop-opacity="1" stop-color="rgb(0%, 54.980469%, 80.999756%)" offset="0.105469"/><stop stop-opacity="1" stop-color="rgb(0%, 54.803467%, 80.799866%)" offset="0.109375"/><stop stop-opacity="1" stop-color="rgb(0%, 54.624939%, 80.59845%)" offset="0.113281"/><stop stop-opacity="1" stop-color="rgb(0%, 54.446411%, 80.39856%)" offset="0.117188"/><stop stop-opacity="1" stop-color="rgb(0%, 54.267883%, 80.198669%)" offset="0.121094"/><stop stop-opacity="1" stop-color="rgb(0%, 54.090881%, 79.998779%)" offset="0.125"/><stop stop-opacity="1" stop-color="rgb(0%, 53.894043%, 79.8172%)" offset="0.128906"/><stop stop-opacity="1" stop-color="rgb(0%, 53.69873%, 79.63562%)" offset="0.132812"/><stop stop-opacity="1" stop-color="rgb(0%, 53.488159%, 79.417419%)" offset="0.136719"/><stop stop-opacity="1" stop-color="rgb(0%, 53.279114%, 79.199219%)" offset="0.140625"/><stop stop-opacity="1" stop-color="rgb(0%, 53.088379%, 79.01001%)" offset="0.148438"/><stop stop-opacity="1" stop-color="rgb(0%, 52.574158%, 78.643799%)" offset="0.152344"/><stop stop-opacity="1" stop-color="rgb(0%, 52.250671%, 78.466797%)" offset="0.15625"/><stop stop-opacity="1" stop-color="rgb(0%, 52.079773%, 78.288269%)" offset="0.164063"/><stop stop-opacity="1" stop-color="rgb(0%, 51.731873%, 77.932739%)" offset="0.171875"/><stop stop-opacity="1" stop-color="rgb(0%, 51.376343%, 77.601624%)" offset="0.179688"/><stop stop-opacity="1" stop-color="rgb(0%, 50.970459%, 77.246094%)" offset="0.183594"/><stop stop-opacity="1" stop-color="rgb(0%, 50.743103%, 77.043152%)" offset="0.1875"/><stop stop-opacity="1" stop-color="rgb(0%, 50.564575%, 76.864624%)" offset="0.195313"/><stop stop-opacity="1" stop-color="rgb(0%, 50.209045%, 76.509094%)" offset="0.203125"/><stop stop-opacity="1" stop-color="rgb(0%, 49.853516%, 76.153564%)" offset="0.210938"/><stop stop-opacity="1" stop-color="rgb(0%, 49.336243%, 75.796509%)" offset="0.214844"/><stop stop-opacity="1" stop-color="rgb(0%, 48.999023%, 75.619507%)" offset="0.21875"/><stop stop-opacity="1" stop-color="rgb(0%, 48.799133%, 75.390625%)" offset="0.222656"/><stop stop-opacity="1" stop-color="rgb(0%, 48.599243%, 75.163269%)" offset="0.226563"/><stop stop-opacity="1" stop-color="rgb(0%, 48.399353%, 74.984741%)" offset="0.230469"/><stop stop-opacity="1" stop-color="rgb(0%, 48.199463%, 74.807739%)" offset="0.234375"/><stop stop-opacity="1" stop-color="rgb(0%, 47.999573%, 74.629211%)" offset="0.238281"/><stop stop-opacity="1" stop-color="rgb(0%, 47.799683%, 74.452209%)" offset="0.242188"/><stop stop-opacity="1" stop-color="rgb(0%, 47.648621%, 74.273682%)" offset="0.25"/><stop stop-opacity="1" stop-color="rgb(0%, 47.319031%, 73.89679%)" offset="0.253906"/><stop stop-opacity="1" stop-color="rgb(0%, 47.138977%, 73.699951%)" offset="0.257813"/><stop stop-opacity="1" stop-color="rgb(0%, 46.960449%, 73.498535%)" offset="0.261719"/><stop stop-opacity="1" stop-color="rgb(0%, 46.783447%, 73.298645%)" offset="0.265625"/><stop stop-opacity="1" stop-color="rgb(0%, 46.554565%, 73.098755%)" offset="0.269531"/><stop stop-opacity="1" stop-color="rgb(0%, 46.327209%, 72.898865%)" offset="0.273438"/><stop stop-opacity="1" stop-color="rgb(0%, 46.148682%, 72.698975%)" offset="0.277344"/><stop stop-opacity="1" stop-color="rgb(0%, 45.97168%, 72.499084%)" offset="0.28125"/><stop stop-opacity="1" stop-color="rgb(0%, 45.735168%, 72.348022%)" offset="0.285156"/><stop stop-opacity="1" stop-color="rgb(0%, 45.498657%, 72.198486%)" offset="0.289063"/><stop stop-opacity="1" stop-color="rgb(0%, 45.298767%, 71.998596%)" offset="0.292969"/><stop stop-opacity="1" stop-color="rgb(0%, 45.098877%, 71.798706%)" offset="0.296875"/><stop stop-opacity="1" stop-color="rgb(0%, 44.898987%, 71.598816%)" offset="0.300781"/><stop stop-opacity="1" stop-color="rgb(0%, 44.699097%, 71.398926%)" offset="0.304688"/><stop stop-opacity="1" stop-color="rgb(0%, 44.499207%, 71.199036%)" offset="0.308594"/><stop stop-opacity="1" stop-color="rgb(0%, 44.299316%, 70.999146%)" offset="0.3125"/><stop stop-opacity="1" stop-color="rgb(0%, 44.099426%, 70.799255%)" offset="0.316406"/><stop stop-opacity="1" stop-color="rgb(0%, 43.899536%, 70.599365%)" offset="0.320312"/><stop stop-opacity="1" stop-color="rgb(0.0396729%, 43.858337%, 70.558167%)" offset="0.328125"/><stop stop-opacity="1" stop-color="rgb(0.239563%, 43.62793%, 70.358276%)" offset="0.335938"/><stop stop-opacity="1" stop-color="rgb(0.418091%, 43.269348%, 70.199585%)" offset="0.34375"/><stop stop-opacity="1" stop-color="rgb(0.617981%, 43.09082%, 70.19043%)" offset="0.351563"/><stop stop-opacity="1" stop-color="rgb(0.820923%, 42.874146%, 69.99054%)" offset="0.355469"/><stop stop-opacity="1" stop-color="rgb(0.842285%, 42.666626%, 69.799805%)" offset="0.359375"/><stop stop-opacity="1" stop-color="rgb(1.020813%, 42.521667%, 69.789124%)" offset="0.367188"/><stop stop-opacity="1" stop-color="rgb(1.199341%, 42.189026%, 69.589233%)" offset="0.375"/><stop stop-opacity="1" stop-color="rgb(1.387024%, 41.999817%, 69.398499%)" offset="0.382813"/><stop stop-opacity="1" stop-color="rgb(1.586914%, 41.821289%, 69.398499%)" offset="0.390625"/><stop stop-opacity="1" stop-color="rgb(1.789856%, 41.430664%, 69.207764%)" offset="0.394531"/><stop stop-opacity="1" stop-color="rgb(1.980591%, 41.218567%, 69.018555%)" offset="0.398438"/><stop stop-opacity="1" stop-color="rgb(2.1698%, 41.027832%, 69.007874%)" offset="0.40625"/><stop stop-opacity="1" stop-color="rgb(2.378845%, 40.818787%, 68.829346%)" offset="0.414063"/><stop stop-opacity="1" stop-color="rgb(2.5177%, 40.640259%, 68.629456%)" offset="0.421875"/><stop stop-opacity="1" stop-color="rgb(2.667236%, 40.292358%, 68.598938%)" offset="0.429688"/><stop stop-opacity="1" stop-color="rgb(2.835083%, 39.915466%, 68.461609%)" offset="0.4375"/><stop stop-opacity="1" stop-color="rgb(3.034973%, 39.66217%, 68.261719%)" offset="0.445312"/><stop stop-opacity="1" stop-color="rgb(3.237915%, 39.459229%, 68.058777%)" offset="0.453125"/><stop stop-opacity="1" stop-color="rgb(3.437805%, 39.131165%, 67.858887%)" offset="0.460938"/><stop stop-opacity="1" stop-color="rgb(3.616333%, 38.870239%, 67.799377%)" offset="0.46875"/><stop stop-opacity="1" stop-color="rgb(3.816223%, 38.691711%, 67.718506%)" offset="0.476563"/><stop stop-opacity="1" stop-color="rgb(4.008484%, 38.383484%, 67.56897%)" offset="0.480469"/><stop stop-opacity="1" stop-color="rgb(4.118347%, 38.180542%, 67.498779%)" offset="0.484375"/><stop stop-opacity="1" stop-color="rgb(4.208374%, 37.980652%, 67.388916%)" offset="0.488281"/><stop stop-opacity="1" stop-color="rgb(4.299927%, 37.780762%, 67.280579%)" offset="0.492188"/><stop stop-opacity="1" stop-color="rgb(4.397583%, 37.689209%, 67.189026%)" offset="0.5"/><stop stop-opacity="1" stop-color="rgb(4.684448%, 37.533569%, 67.010498%)" offset="0.507812"/><stop stop-opacity="1" stop-color="rgb(4.986572%, 37.306213%, 66.810608%)" offset="0.515625"/><stop stop-opacity="1" stop-color="rgb(5.174255%, 36.947632%, 66.699219%)" offset="0.519531"/><stop stop-opacity="1" stop-color="rgb(5.249023%, 36.749268%, 66.699219%)" offset="0.523438"/><stop stop-opacity="1" stop-color="rgb(5.374146%, 36.624146%, 66.619873%)" offset="0.53125"/><stop stop-opacity="1" stop-color="rgb(5.567932%, 36.430359%, 66.419983%)" offset="0.539062"/><stop stop-opacity="1" stop-color="rgb(5.767822%, 36.172485%, 66.241455%)" offset="0.546875"/><stop stop-opacity="1" stop-color="rgb(5.944824%, 35.795593%, 66.041565%)" offset="0.554688"/><stop stop-opacity="1" stop-color="rgb(6.144714%, 35.452271%, 65.899658%)" offset="0.5625"/><stop stop-opacity="1" stop-color="rgb(6.326294%, 35.270691%, 65.870667%)" offset="0.570313"/><stop stop-opacity="1" stop-color="rgb(6.526184%, 35.032654%, 65.670776%)" offset="0.574219"/><stop stop-opacity="1" stop-color="rgb(6.698608%, 34.822083%, 65.499878%)" offset="0.578125"/><stop stop-opacity="1" stop-color="rgb(6.726074%, 34.632874%, 65.472412%)" offset="0.585938"/><stop stop-opacity="1" stop-color="rgb(6.925964%, 34.27124%, 65.270996%)" offset="0.59375"/><stop stop-opacity="1" stop-color="rgb(7.293701%, 33.905029%, 65.098572%)" offset="0.609375"/><stop stop-opacity="1" stop-color="rgb(7.643127%, 33.505249%, 64.898682%)" offset="0.613281"/><stop stop-opacity="1" stop-color="rgb(7.798767%, 33.299255%, 64.698792%)" offset="0.617188"/><stop stop-opacity="1" stop-color="rgb(7.798767%, 33.299255%, 64.698792%)" offset="0.625"/><stop stop-opacity="1" stop-color="rgb(7.984924%, 33.113098%, 64.512634%)" offset="0.632812"/><stop stop-opacity="1" stop-color="rgb(8.184814%, 32.737732%, 64.312744%)" offset="0.640625"/><stop stop-opacity="1" stop-color="rgb(8.363342%, 32.400513%, 64.299011%)" offset="0.648438"/><stop stop-opacity="1" stop-color="rgb(8.563232%, 32.225037%, 64.123535%)" offset="0.65625"/><stop stop-opacity="1" stop-color="rgb(8.766174%, 32.03125%, 63.923645%)" offset="0.664062"/><stop stop-opacity="1" stop-color="rgb(8.966064%, 31.67572%, 63.742065%)" offset="0.671875"/><stop stop-opacity="1" stop-color="rgb(9.144592%, 31.297302%, 63.542175%)" offset="0.679687"/><stop stop-opacity="1" stop-color="rgb(9.344482%, 31.053162%, 63.365173%)" offset="0.6875"/><stop stop-opacity="1" stop-color="rgb(9.521484%, 30.87616%, 63.165283%)" offset="0.695312"/><stop stop-opacity="1" stop-color="rgb(9.721375%, 30.54657%, 63.09967%)" offset="0.699219"/><stop stop-opacity="1" stop-color="rgb(9.799194%, 30.342102%, 63.09967%)" offset="0.703125"/><stop stop-opacity="1" stop-color="rgb(9.924316%, 30.143738%, 62.973022%)" offset="0.707031"/><stop stop-opacity="1" stop-color="rgb(10.050964%, 29.946899%, 62.846375%)" offset="0.710938"/><stop stop-opacity="1" stop-color="rgb(10.124207%, 29.872131%, 62.773132%)" offset="0.71875"/><stop stop-opacity="1" stop-color="rgb(10.302734%, 29.695129%, 62.620544%)" offset="0.726562"/><stop stop-opacity="1" stop-color="rgb(10.595703%, 29.402161%, 62.471008%)" offset="0.734375"/><stop stop-opacity="1" stop-color="rgb(10.891724%, 29.10614%, 62.399292%)" offset="0.742188"/><stop stop-opacity="1" stop-color="rgb(11.094666%, 28.903198%, 62.303162%)" offset="0.75"/><stop stop-opacity="1" stop-color="rgb(11.294556%, 28.617859%, 62.103271%)" offset="0.757812"/><stop stop-opacity="1" stop-color="rgb(11.473083%, 28.239441%, 61.924744%)" offset="0.765625"/><stop stop-opacity="1" stop-color="rgb(11.732483%, 27.879333%, 61.724854%)" offset="0.78125"/><stop stop-opacity="1" stop-color="rgb(12.059021%, 27.537537%, 61.532593%)" offset="0.789062"/><stop stop-opacity="1" stop-color="rgb(12.240601%, 27.177429%, 61.332703%)" offset="0.796875"/><stop stop-opacity="1" stop-color="rgb(12.390137%, 26.844788%, 61.155701%)" offset="0.804688"/><stop stop-opacity="1" stop-color="rgb(12.532043%, 26.66626%, 60.954285%)" offset="0.8125"/><stop stop-opacity="1" stop-color="rgb(12.731934%, 26.443481%, 60.798645%)" offset="0.820313"/><stop stop-opacity="1" stop-color="rgb(12.911987%, 26.065063%, 60.786438%)" offset="0.828125"/><stop stop-opacity="1" stop-color="rgb(13.136292%, 25.686646%, 60.586548%)" offset="0.832031"/><stop stop-opacity="1" stop-color="rgb(13.349915%, 25.498962%, 60.398865%)" offset="0.835938"/><stop stop-opacity="1" stop-color="rgb(13.523865%, 25.485229%, 60.385132%)" offset="0.84375"/><stop stop-opacity="1" stop-color="rgb(13.702393%, 25.282288%, 60.185242%)" offset="0.851562"/><stop stop-opacity="1" stop-color="rgb(13.894653%, 24.90387%, 59.999084%)" offset="0.859375"/><stop stop-opacity="1" stop-color="rgb(14.091492%, 24.525452%, 59.817505%)" offset="0.867188"/><stop stop-opacity="1" stop-color="rgb(14.292908%, 24.317932%, 59.617615%)" offset="0.875"/><stop stop-opacity="1" stop-color="rgb(14.492798%, 24.11499%, 59.599304%)" offset="0.882812"/><stop stop-opacity="1" stop-color="rgb(14.671326%, 23.742676%, 59.425354%)" offset="0.890625"/><stop stop-opacity="1" stop-color="rgb(15.022278%, 23.374939%, 59.074402%)" offset="0.90625"/><stop stop-opacity="1" stop-color="rgb(15.249634%, 22.988892%, 58.848572%)" offset="0.910156"/><stop stop-opacity="1" stop-color="rgb(15.299988%, 22.779846%, 58.799744%)" offset="0.914062"/><stop stop-opacity="1" stop-color="rgb(15.452576%, 22.624207%, 58.799744%)" offset="0.921875"/><stop stop-opacity="1" stop-color="rgb(15.652466%, 22.433472%, 58.656311%)" offset="0.929687"/><stop stop-opacity="1" stop-color="rgb(15.830994%, 22.267151%, 58.456421%)" offset="0.9375"/><stop stop-opacity="1" stop-color="rgb(16.151428%, 21.946716%, 58.277893%)" offset="0.945312"/><stop stop-opacity="1" stop-color="rgb(16.419983%, 21.568298%, 58.078003%)" offset="0.953125"/><stop stop-opacity="1" stop-color="rgb(16.612244%, 21.289062%, 57.998657%)" offset="0.960938"/><stop stop-opacity="1" stop-color="rgb(16.812134%, 21.086121%, 57.885742%)" offset="0.96875"/><stop stop-opacity="1" stop-color="rgb(17.001343%, 20.783997%, 57.685852%)" offset="0.976562"/><stop stop-opacity="1" stop-color="rgb(17.201233%, 20.407104%, 57.530212%)" offset="0.984375"/><stop stop-opacity="1" stop-color="rgb(17.448425%, 20.030212%, 57.380676%)" offset="1"/></linearGradient><clipPath id="7868bb2f93"><path d="M 176 170.910156 L 186 170.910156 L 186 178.410156 L 176 178.410156 Z M 176 170.910156 " clip-rule="nonzero"/></clipPath><clipPath id="3fe5667b94"><path d="M 167.921875 172 L 194.921875 172 L 194.921875 175 L 167.921875 175 Z M 167.921875 172 " clip-rule="nonzero"/></clipPath></defs><g clip-path="url(#e74d4d7341)"><g clip-path="url(#d4e452420e)"><g clip-path="url(#17e1a161db)"><g clip-path="url(#4e6a47588a)"><path fill="url(#9d69ad8669)" d="M 185.695312 104.976562 L 123.398438 159.882812 L 179.503906 223.976562 L 241.800781 169.070312 Z M 185.695312 104.976562 " fill-rule="nonzero"/></g></g></g></g><g fill="#b2bbc2" fill-opacity="1"><g transform="translate(21.819801, 192.236918)"><g><path d="M 14.84375 -26.0625 C 18.851562 -26.0625 22.1875 -24.8125 24.84375 -22.3125 C 27.5 -19.8125 28.828125 -16.691406 28.828125 -12.953125 C 28.828125 -9.191406 27.488281 -6.039062 24.8125 -3.5 C 22.144531 -0.96875 18.816406 0.296875 14.828125 0.296875 C 10.847656 0.296875 7.53125 -0.960938 4.875 -3.484375 C 2.21875 -6.003906 0.890625 -9.160156 0.890625 -12.953125 C 0.890625 -16.710938 2.21875 -19.835938 4.875 -22.328125 C 7.53125 -24.816406 10.851562 -26.0625 14.84375 -26.0625 Z M 14.90625 -20.5625 C 12.894531 -20.5625 11.175781 -19.828125 9.75 -18.359375 C 8.320312 -16.898438 7.609375 -15.085938 7.609375 -12.921875 C 7.609375 -10.753906 8.328125 -8.925781 9.765625 -7.4375 C 11.203125 -5.945312 12.914062 -5.203125 14.90625 -5.203125 C 16.90625 -5.203125 18.597656 -5.945312 19.984375 -7.4375 C 21.367188 -8.925781 22.0625 -10.753906 22.0625 -12.921875 C 22.0625 -15.085938 21.367188 -16.898438 19.984375 -18.359375 C 18.597656 -19.828125 16.90625 -20.5625 14.90625 -20.5625 Z M 14.90625 -20.5625 "/></g></g></g><g fill="#b2bbc2" fill-opacity="1"><g transform="translate(51.525228, 192.236918)"><g><path d="M 18.15625 0 L 14.3125 -7.265625 L 9.15625 -7.265625 L 9.15625 0 L 2.578125 0 L 2.578125 -25.828125 L 14.140625 -25.828125 C 17.554688 -25.828125 20.195312 -25.046875 22.0625 -23.484375 C 23.9375 -21.921875 24.875 -19.703125 24.875 -16.828125 C 24.875 -12.835938 23.3125 -10.070312 20.1875 -8.53125 L 25.609375 0 Z M 9.15625 -12.4375 L 14.140625 -12.4375 C 15.566406 -12.4375 16.671875 -12.789062 17.453125 -13.5 C 18.242188 -14.21875 18.640625 -15.253906 18.640625 -16.609375 C 18.640625 -17.929688 18.242188 -18.9375 17.453125 -19.625 C 16.671875 -20.320312 15.566406 -20.671875 14.140625 -20.671875 L 9.15625 -20.671875 Z M 9.15625 -12.4375 "/></g></g></g><g fill="#b2bbc2" fill-opacity="1"><g transform="translate(78.241666, 192.236918)"><g><path d="M 22.328125 -20.5625 L 14.546875 -20.5625 L 14.546875 0 L 7.96875 0 L 7.96875 -20.5625 L 0.265625 -20.5625 L 0.265625 -25.875 L 22.328125 -25.875 Z M 22.328125 -20.5625 "/></g></g></g><g fill="#b2bbc2" fill-opacity="1"><g transform="translate(100.788275, 192.236918)"><g><path d="M 26.421875 0 L 19.859375 0 L 19.859375 -10.03125 L 9.15625 -10.03125 L 9.15625 0 L 2.578125 0 L 2.578125 -25.828125 L 9.15625 -25.828125 L 9.15625 -15.203125 L 19.859375 -15.203125 L 19.859375 -25.828125 L 26.421875 -25.828125 Z M 26.421875 0 "/></g></g></g><g fill="#b2bbc2" fill-opacity="1"><g transform="translate(129.792578, 192.236918)"><g><path d="M 14.84375 -26.0625 C 18.851562 -26.0625 22.1875 -24.8125 24.84375 -22.3125 C 27.5 -19.8125 28.828125 -16.691406 28.828125 -12.953125 C 28.828125 -9.191406 27.488281 -6.039062 24.8125 -3.5 C 22.144531 -0.96875 18.816406 0.296875 14.828125 0.296875 C 10.847656 0.296875 7.53125 -0.960938 4.875 -3.484375 C 2.21875 -6.003906 0.890625 -9.160156 0.890625 -12.953125 C 0.890625 -16.710938 2.21875 -19.835938 4.875 -22.328125 C 7.53125 -24.816406 10.851562 -26.0625 14.84375 -26.0625 Z M 14.90625 -20.5625 C 12.894531 -20.5625 11.175781 -19.828125 9.75 -18.359375 C 8.320312 -16.898438 7.609375 -15.085938 7.609375 -12.921875 C 7.609375 -10.753906 8.328125 -8.925781 9.765625 -7.4375 C 11.203125 -5.945312 12.914062 -5.203125 14.90625 -5.203125 C 16.90625 -5.203125 18.597656 -5.945312 19.984375 -7.4375 C 21.367188 -8.925781 22.0625 -10.753906 22.0625 -12.921875 C 22.0625 -15.085938 21.367188 -16.898438 19.984375 -18.359375 C 18.597656 -19.828125 16.90625 -20.5625 14.90625 -20.5625 Z M 14.90625 -20.5625 "/></g></g></g><g fill="#b2bbc2" fill-opacity="1"><g transform="translate(159.498584, 192.236918)"><g/></g></g><g fill="#b2bbc2" fill-opacity="1"><g transform="translate(168.059647, 192.236918)"><g/></g></g><g fill="#b2bbc2" fill-opacity="1"><g transform="translate(176.62071, 192.236918)"><g/></g></g><g fill="#b2bbc2" fill-opacity="1"><g transform="translate(185.181773, 192.236918)"><g/></g></g><g fill="#b2bbc2" fill-opacity="1"><g transform="translate(193.742836, 192.236918)"><g/></g></g><g fill="#b2bbc2" fill-opacity="1"><g transform="translate(202.303899, 192.236918)"><g/></g></g><g fill="#b2bbc2" fill-opacity="1"><g transform="translate(210.868873, 192.236918)"><g><path d="M 14.84375 -26.0625 C 18.851562 -26.0625 22.1875 -24.8125 24.84375 -22.3125 C 27.5 -19.8125 28.828125 -16.691406 28.828125 -12.953125 C 28.828125 -9.191406 27.488281 -6.039062 24.8125 -3.5 C 22.144531 -0.96875 18.816406 0.296875 14.828125 0.296875 C 10.847656 0.296875 7.53125 -0.960938 4.875 -3.484375 C 2.21875 -6.003906 0.890625 -9.160156 0.890625 -12.953125 C 0.890625 -16.710938 2.21875 -19.835938 4.875 -22.328125 C 7.53125 -24.816406 10.851562 -26.0625 14.84375 -26.0625 Z M 14.90625 -20.5625 C 12.894531 -20.5625 11.175781 -19.828125 9.75 -18.359375 C 8.320312 -16.898438 7.609375 -15.085938 7.609375 -12.921875 C 7.609375 -10.753906 8.328125 -8.925781 9.765625 -7.4375 C 11.203125 -5.945312 12.914062 -5.203125 14.90625 -5.203125 C 16.90625 -5.203125 18.597656 -5.945312 19.984375 -7.4375 C 21.367188 -8.925781 22.0625 -10.753906 22.0625 -12.921875 C 22.0625 -15.085938 21.367188 -16.898438 19.984375 -18.359375 C 18.597656 -19.828125 16.90625 -20.5625 14.90625 -20.5625 Z M 14.90625 -20.5625 "/></g></g></g><g fill="#b2bbc2" fill-opacity="1"><g transform="translate(240.574299, 192.236918)"><g><path d="M 26.421875 0 L 20.625 0 L 8.75 -15.90625 L 8.75 0 L 2.578125 0 L 2.578125 -25.828125 L 8.375 -25.828125 L 20.296875 -9.890625 L 20.296875 -25.828125 L 26.421875 -25.828125 Z M 26.421875 0 "/></g></g></g><g fill="#b2bbc2" fill-opacity="1"><g transform="translate(269.578603, 192.236918)"><g><path d="M 22.328125 -20.5625 L 14.546875 -20.5625 L 14.546875 0 L 7.96875 0 L 7.96875 -20.5625 L 0.265625 -20.5625 L 0.265625 -25.875 L 22.328125 -25.875 Z M 22.328125 -20.5625 "/></g></g></g><g fill="#b2bbc2" fill-opacity="1"><g transform="translate(292.125211, 192.236918)"><g><path d="M 9.15625 0 L 2.578125 0 L 2.578125 -25.828125 L 9.15625 -25.828125 Z M 9.15625 0 "/></g></g></g><g fill="#b2bbc2" fill-opacity="1"><g transform="translate(303.859784, 192.236918)"><g><path d="M 14.6875 -26.0625 C 16.601562 -26.0625 18.488281 -25.664062 20.34375 -24.875 C 22.207031 -24.082031 23.789062 -23.023438 25.09375 -21.703125 L 21.296875 -17.203125 C 20.460938 -18.234375 19.457031 -19.050781 18.28125 -19.65625 C 17.113281 -20.257812 15.953125 -20.5625 14.796875 -20.5625 C 12.753906 -20.5625 11.046875 -19.835938 9.671875 -18.390625 C 8.296875 -16.953125 7.609375 -15.175781 7.609375 -13.0625 C 7.609375 -10.894531 8.296875 -9.085938 9.671875 -7.640625 C 11.046875 -6.191406 12.753906 -5.46875 14.796875 -5.46875 C 15.878906 -5.46875 17.003906 -5.738281 18.171875 -6.28125 C 19.335938 -6.820312 20.378906 -7.554688 21.296875 -8.484375 L 25.140625 -4.421875 C 23.734375 -2.992188 22.078125 -1.847656 20.171875 -0.984375 C 18.265625 -0.128906 16.363281 0.296875 14.46875 0.296875 C 10.582031 0.296875 7.347656 -0.96875 4.765625 -3.5 C 2.179688 -6.039062 0.890625 -9.203125 0.890625 -12.984375 C 0.890625 -16.703125 2.203125 -19.8125 4.828125 -22.3125 C 7.460938 -24.8125 10.75 -26.0625 14.6875 -26.0625 Z M 14.6875 -26.0625 "/></g></g></g><g fill="#b2bbc2" fill-opacity="1"><g transform="translate(329.395379, 192.236918)"><g><path d="M 12.515625 -26.125 C 16.378906 -26.125 19.773438 -25.164062 22.703125 -23.25 L 20.21875 -18.125 C 18.863281 -18.90625 17.410156 -19.546875 15.859375 -20.046875 C 14.316406 -20.554688 13.015625 -20.8125 11.953125 -20.8125 C 10.054688 -20.8125 9.109375 -20.1875 9.109375 -18.9375 C 9.109375 -18.125 9.578125 -17.46875 10.515625 -16.96875 C 11.453125 -16.476562 12.585938 -16.054688 13.921875 -15.703125 C 15.265625 -15.347656 16.609375 -14.914062 17.953125 -14.40625 C 19.296875 -13.90625 20.429688 -13.085938 21.359375 -11.953125 C 22.296875 -10.828125 22.765625 -9.398438 22.765625 -7.671875 C 22.765625 -5.191406 21.789062 -3.253906 19.84375 -1.859375 C 17.90625 -0.472656 15.4375 0.21875 12.4375 0.21875 C 10.289062 0.21875 8.171875 -0.148438 6.078125 -0.890625 C 3.992188 -1.628906 2.175781 -2.632812 0.625 -3.90625 L 3.171875 -8.96875 C 4.472656 -7.832031 6.007812 -6.898438 7.78125 -6.171875 C 9.550781 -5.453125 11.128906 -5.09375 12.515625 -5.09375 C 13.566406 -5.09375 14.390625 -5.28125 14.984375 -5.65625 C 15.578125 -6.039062 15.875 -6.601562 15.875 -7.34375 C 15.875 -8.0625 15.535156 -8.660156 14.859375 -9.140625 C 14.179688 -9.617188 13.335938 -9.972656 12.328125 -10.203125 C 11.316406 -10.441406 10.21875 -10.753906 9.03125 -11.140625 C 7.851562 -11.535156 6.757812 -11.96875 5.75 -12.4375 C 4.75 -12.90625 3.910156 -13.648438 3.234375 -14.671875 C 2.554688 -15.691406 2.21875 -16.914062 2.21875 -18.34375 C 2.21875 -20.707031 3.15625 -22.59375 5.03125 -24 C 6.914062 -25.414062 9.410156 -26.125 12.515625 -26.125 Z M 12.515625 -26.125 "/></g></g></g><g fill="#004aad" fill-opacity="1"><g transform="translate(106.985341, 162.742594)"><g><path d="M 12.140625 -1.6875 L 12.140625 0 L 0.828125 0 L 0.828125 -1.3125 L 9.328125 -11.84375 L 0.96875 -11.84375 L 0.96875 -13.53125 L 11.890625 -13.53125 L 11.890625 -12.21875 L 3.421875 -1.6875 Z M 12.140625 -1.6875 "/></g></g></g><g fill="#004aad" fill-opacity="1"><g transform="translate(122.405145, 162.742594)"><g><path d="M 10.65625 -3.375 L 3.453125 -3.375 L 1.96875 0 L -0.015625 0 L 6.109375 -13.53125 L 8.015625 -13.53125 L 14.171875 0 L 12.140625 0 Z M 9.96875 -4.921875 L 7.0625 -11.5625 L 4.140625 -4.921875 Z M 9.96875 -4.921875 "/></g></g></g><g fill="#004aad" fill-opacity="1"><g transform="translate(139.274021, 162.742594)"><g><path d="M 13.671875 -13.53125 L 13.671875 0 L 12.078125 0 L 3.96875 -10.09375 L 3.96875 0 L 2.03125 0 L 2.03125 -13.53125 L 3.609375 -13.53125 L 11.734375 -3.4375 L 11.734375 -13.53125 Z M 13.671875 -13.53125 "/></g></g></g><g clip-path="url(#7868bb2f93)"><path fill="#004aad" d="M 185.773438 172.570312 C 185.726562 171.910156 185.316406 171.292969 184.664062 171.101562 C 184.1875 170.929688 183.671875 170.953125 183.175781 170.945312 C 182.488281 170.953125 181.800781 170.910156 181.117188 170.976562 C 180.335938 171.046875 179.542969 171.039062 178.765625 171.167969 C 178.011719 171.25 177.460938 171.414062 177.160156 172.179688 C 176.964844 172.628906 176.980469 173.125 176.976562 173.605469 C 176.984375 174.136719 176.960938 174.660156 176.984375 175.191406 C 176.996094 175.539062 177.011719 175.902344 177.078125 176.253906 C 177.117188 176.632812 177.199219 177.003906 177.398438 177.332031 C 177.917969 177.957031 178.839844 178.082031 179.664062 178.148438 C 179.707031 178.15625 179.753906 178.15625 179.804688 178.15625 C 179.945312 178.167969 180.085938 178.179688 180.214844 178.1875 C 180.375 178.1875 180.53125 178.175781 180.691406 178.164062 C 181.171875 178.183594 181.652344 178.210938 182.132812 178.207031 C 182.902344 178.207031 183.703125 178.222656 184.441406 178 C 185.769531 177.527344 185.875 175.9375 185.886719 174.730469 C 185.863281 174.011719 185.933594 173.28125 185.773438 172.570312 " fill-opacity="1" fill-rule="nonzero"/></g><g clip-path="url(#3fe5667b94)"><path fill="#004aad" d="M 176.667969 174.917969 C 175.535156 174.914062 174.40625 174.855469 173.277344 174.773438 C 171.609375 174.664062 169.929688 174.664062 168.273438 174.429688 C 168.21875 174.417969 168.164062 174.410156 168.109375 174.402344 C 167.964844 174.382812 167.917969 174.164062 168.046875 174.085938 C 168.246094 174.011719 168.480469 174.128906 168.6875 174.136719 C 171.496094 174.355469 174.3125 174.527344 177.128906 174.574219 C 182.507812 174.425781 187.898438 173.953125 193.183594 172.929688 C 193.8125 172.820312 194.417969 172.621094 195.015625 172.414062 C 195.109375 172.410156 195.195312 172.484375 195.203125 172.578125 C 195.277344 172.789062 194.441406 172.953125 194.285156 173.03125 C 192.339844 173.503906 190.351562 173.820312 188.363281 174.074219 C 184.480469 174.507812 180.578125 174.917969 176.667969 174.917969 " fill-opacity="1" fill-rule="nonzero"/></g><path fill="#ecebe6" d="M 180.835938 175.558594 C 180.347656 175.546875 180.035156 175.398438 179.972656 174.875 C 179.921875 174.453125 179.820312 174.003906 179.976562 173.59375 C 180.074219 173.308594 180.316406 173.070312 180.621094 173.023438 C 181.078125 172.917969 181.542969 172.90625 182.007812 172.910156 C 182.503906 172.902344 183.21875 172.996094 183.105469 173.65625 C 183.097656 174.042969 183.121094 174.441406 182.992188 174.8125 C 182.855469 175.238281 182.632812 175.542969 182.144531 175.507812 C 181.710938 175.53125 181.273438 175.5625 180.835938 175.558594 " fill-opacity="1" fill-rule="nonzero"/><path fill="#ecebe6" d="M 184.351562 175.289062 C 184.304688 174.832031 184.300781 174.371094 184.292969 173.910156 C 184.308594 173.730469 184.226562 173.347656 184.3125 173.214844 C 184.402344 173.097656 184.613281 173.15625 184.621094 173.308594 C 184.636719 173.550781 184.640625 173.792969 184.644531 174.035156 C 184.652344 174.441406 184.660156 174.847656 184.703125 175.25 C 184.726562 175.476562 184.382812 175.519531 184.351562 175.289062 " fill-opacity="1" fill-rule="nonzero"/><path fill="#ecebe6" d="M 178.609375 175.589844 C 178.332031 175.5625 178.464844 175.175781 178.441406 174.984375 C 178.449219 174.691406 178.4375 174.402344 178.433594 174.109375 C 178.433594 173.898438 178.414062 173.6875 178.445312 173.480469 C 178.484375 173.253906 178.824219 173.308594 178.792969 173.535156 C 178.753906 174.019531 178.808594 174.507812 178.792969 174.992188 C 178.789062 175.136719 178.785156 175.277344 178.789062 175.417969 C 178.792969 175.515625 178.703125 175.59375 178.609375 175.589844 " fill-opacity="1" fill-rule="nonzero"/></svg>